<?xml version="1.0" encoding="UTF-8" standalone="no"?>
<!DOCTYPE svg PUBLIC "-//W3C//DTD SVG 1.1//EN"
 "http://www.w3.org/Graphics/SVG/1.1/DTD/svg11.dtd">
<!-- Generated by graphviz version 2.43.0 (0)
 -->
<!-- Title: FIG0_COMPARISON Pages: 1 -->
<svg width="1121pt" height="387pt"
 viewBox="0.00 0.00 1121.20 387.20" xmlns="http://www.w3.org/2000/svg" xmlns:xlink="http://www.w3.org/1999/xlink">
<g id="graph0" class="graph" transform="scale(1 1) rotate(0) translate(21.6 365.6)">
<title>FIG0_COMPARISON</title>
<polygon fill="#ffffff" stroke="transparent" points="-21.6,21.6 -21.6,-365.6 1099.6,-365.6 1099.6,21.6 -21.6,21.6"/>
<text text-anchor="start" x="359" y="-326.2" font-family="Helvetica,Arial,sans-serif" font-weight="bold" font-size="16.00">PolyFlow&#45;NPU: Architectural Exploration Space</text>
<text text-anchor="start" x="340" y="-307.2" font-family="Helvetica,Arial,sans-serif" font-size="11.00" fill="#475569">Comparison of Baseline Configurations vs. Proposed Novel Heterogeneous Fission</text>
<!-- comparison_matrix -->
<g id="node1" class="node">
<title>comparison_matrix</title>
<polygon fill="#f8fafc" stroke="transparent" points="24,-20 24,-278 350,-278 350,-20 24,-20"/>
<polygon fill="none" stroke="#94a3b8" points="24,-20 24,-278 350,-278 350,-20 24,-20"/>
<polygon fill="#0284c7" stroke="transparent" points="41,-240 41,-261 301,-261 301,-240 41,-240"/>
<text text-anchor="start" x="125.5" y="-248.4" font-family="Helvetica,Arial,sans-serif" font-weight="bold" font-size="12.00" fill="#ffffff">Configuration A</text>
<text text-anchor="start" x="92.5" y="-224.2" font-family="Helvetica,Arial,sans-serif" font-weight="bold" font-size="11.00">Homogeneous Spatial Fission</text>
<text text-anchor="start" x="116" y="-214.8" font-family="Helvetica,Arial,sans-serif" font-size="9.00" fill="#64748b">(Planaria / SARA Baseline)</text>
<polygon fill="#cbd5e1" stroke="transparent" points="41,-196 41,-204 301,-204 301,-196 41,-196"/>
<polygon fill="#bae6fd" stroke="transparent" points="47,-156 47,-186 158,-186 158,-156 47,-156"/>
<polygon fill="none" stroke="#cbd5e1" points="47,-156 47,-186 158,-186 158,-156 47,-156"/>
<text text-anchor="start" x="61.5" y="-173.8" font-family="Helvetica,Arial,sans-serif" font-weight="bold" font-size="9.00">Region A (Cols 0&#45;7)</text>
<text text-anchor="start" x="78" y="-164.8" font-family="Helvetica,Arial,sans-serif" font-size="9.00">Pinned: </text>
<text text-anchor="start" x="112" y="-164.8" font-family="Helvetica,Arial,sans-serif" font-weight="bold" font-size="9.00">WS</text>
<polygon fill="#fca5a5" stroke="transparent" points="159,-156 159,-186 179,-186 179,-156 159,-156"/>
<polygon fill="none" stroke="#cbd5e1" points="159,-156 159,-186 179,-186 179,-156 159,-156"/>
<text text-anchor="start" x="167.5" y="-169.1" font-family="Helvetica,Arial,sans-serif" font-size="8.00">|</text>
<polygon fill="#bbf7d0" stroke="transparent" points="180,-156 180,-186 295,-186 295,-156 180,-156"/>
<polygon fill="none" stroke="#cbd5e1" points="180,-156 180,-186 295,-186 295,-156 180,-156"/>
<text text-anchor="start" x="193.5" y="-173.8" font-family="Helvetica,Arial,sans-serif" font-weight="bold" font-size="9.00">Region B (Cols 8&#45;15)</text>
<text text-anchor="start" x="213" y="-164.8" font-family="Helvetica,Arial,sans-serif" font-size="9.00">Pinned: </text>
<text text-anchor="start" x="247" y="-164.8" font-family="Helvetica,Arial,sans-serif" font-weight="bold" font-size="9.00">WS</text>
<polygon fill="#f0f9ff" stroke="transparent" points="47,-134 47,-155 88,-155 88,-134 47,-134"/>
<polygon fill="none" stroke="#cbd5e1" points="47,-134 47,-155 88,-155 88,-134 47,-134"/>
<text text-anchor="start" x="62" y="-142.6" font-family="Helvetica,Arial,sans-serif" font-size="8.00">PE</text>
<polygon fill="#f0f9ff" stroke="transparent" points="89,-134 89,-155 124,-155 124,-134 89,-134"/>
<polygon fill="none" stroke="#cbd5e1" points="89,-134 89,-155 124,-155 124,-134 89,-134"/>
<text text-anchor="start" x="101" y="-142.6" font-family="Helvetica,Arial,sans-serif" font-size="8.00">PE</text>
<polygon fill="#f0f9ff" stroke="transparent" points="125,-134 125,-155 158,-155 158,-134 125,-134"/>
<polygon fill="none" stroke="#cbd5e1" points="125,-134 125,-155 158,-155 158,-134 125,-134"/>
<text text-anchor="start" x="137" y="-142.6" font-family="Helvetica,Arial,sans-serif" font-size="8.00">…</text>
<polygon fill="#fca5a5" stroke="transparent" points="159,-134 159,-155 179,-155 179,-134 159,-134"/>
<polygon fill="none" stroke="#cbd5e1" points="159,-134 159,-155 179,-155 179,-134 159,-134"/>
<text text-anchor="start" x="167.5" y="-142.6" font-family="Helvetica,Arial,sans-serif" font-size="8.00">|</text>
<polygon fill="#f0fdf4" stroke="transparent" points="180,-134 180,-155 224,-155 224,-134 180,-134"/>
<polygon fill="none" stroke="#cbd5e1" points="180,-134 180,-155 224,-155 224,-134 180,-134"/>
<text text-anchor="start" x="196.5" y="-142.6" font-family="Helvetica,Arial,sans-serif" font-size="8.00">PE</text>
<polygon fill="#f0fdf4" stroke="transparent" points="225,-134 225,-155 260,-155 260,-134 225,-134"/>
<polygon fill="none" stroke="#cbd5e1" points="225,-134 225,-155 260,-155 260,-134 225,-134"/>
<text text-anchor="start" x="237" y="-142.6" font-family="Helvetica,Arial,sans-serif" font-size="8.00">PE</text>
<polygon fill="#f0fdf4" stroke="transparent" points="261,-134 261,-155 295,-155 295,-134 261,-134"/>
<polygon fill="none" stroke="#cbd5e1" points="261,-134 261,-155 295,-155 295,-134 261,-134"/>
<text text-anchor="start" x="273.5" y="-142.6" font-family="Helvetica,Arial,sans-serif" font-size="8.00">…</text>
<polygon fill="#f0f9ff" stroke="transparent" points="47,-112 47,-133 88,-133 88,-112 47,-112"/>
<polygon fill="none" stroke="#cbd5e1" points="47,-112 47,-133 88,-133 88,-112 47,-112"/>
<text text-anchor="start" x="62" y="-120.6" font-family="Helvetica,Arial,sans-serif" font-size="8.00">PE</text>
<polygon fill="#f0f9ff" stroke="transparent" points="89,-112 89,-133 124,-133 124,-112 89,-112"/>
<polygon fill="none" stroke="#cbd5e1" points="89,-112 89,-133 124,-133 124,-112 89,-112"/>
<text text-anchor="start" x="101" y="-120.6" font-family="Helvetica,Arial,sans-serif" font-size="8.00">PE</text>
<polygon fill="#f0f9ff" stroke="transparent" points="125,-112 125,-133 158,-133 158,-112 125,-112"/>
<polygon fill="none" stroke="#cbd5e1" points="125,-112 125,-133 158,-133 158,-112 125,-112"/>
<text text-anchor="start" x="137" y="-120.6" font-family="Helvetica,Arial,sans-serif" font-size="8.00">…</text>
<polygon fill="#fca5a5" stroke="transparent" points="159,-112 159,-133 179,-133 179,-112 159,-112"/>
<polygon fill="none" stroke="#cbd5e1" points="159,-112 159,-133 179,-133 179,-112 159,-112"/>
<text text-anchor="start" x="167.5" y="-120.6" font-family="Helvetica,Arial,sans-serif" font-size="8.00">|</text>
<polygon fill="#f0fdf4" stroke="transparent" points="180,-112 180,-133 224,-133 224,-112 180,-112"/>
<polygon fill="none" stroke="#cbd5e1" points="180,-112 180,-133 224,-133 224,-112 180,-112"/>
<text text-anchor="start" x="196.5" y="-120.6" font-family="Helvetica,Arial,sans-serif" font-size="8.00">PE</text>
<polygon fill="#f0fdf4" stroke="transparent" points="225,-112 225,-133 260,-133 260,-112 225,-112"/>
<polygon fill="none" stroke="#cbd5e1" points="225,-112 225,-133 260,-133 260,-112 225,-112"/>
<text text-anchor="start" x="237" y="-120.6" font-family="Helvetica,Arial,sans-serif" font-size="8.00">PE</text>
<polygon fill="#f0fdf4" stroke="transparent" points="261,-112 261,-133 295,-133 295,-112 261,-112"/>
<polygon fill="none" stroke="#cbd5e1" points="261,-112 261,-133 295,-133 295,-112 261,-112"/>
<text text-anchor="start" x="273.5" y="-120.6" font-family="Helvetica,Arial,sans-serif" font-size="8.00">…</text>
<polygon fill="none" stroke="#cbd5e1" points="45,-110 45,-188 297,-188 297,-110 45,-110"/>
<polygon fill="#cbd5e1" stroke="transparent" points="41,-94 41,-102 301,-102 301,-94 41,-94"/>
<text text-anchor="start" x="58.5" y="-79.8" font-family="Helvetica,Arial,sans-serif" font-size="9.00"> &#160;&#160;&#160;&#160;&#160;&#160;&#160;&#160;&#160;&#160;&#160;&#160;&#160;• </text>
<text text-anchor="start" x="95.5" y="-79.8" font-family="Helvetica,Arial,sans-serif" font-weight="bold" font-size="9.00">Spatial Multi&#45;Tenancy:</text>
<text text-anchor="start" x="189.5" y="-79.8" font-family="Helvetica,Arial,sans-serif" font-size="9.00"> </text>
<text text-anchor="start" x="192.5" y="-79.8" font-family="Helvetica,Arial,sans-serif" font-size="9.00" fill="#16a34a">Yes (Dynamic Fission)</text>
<text text-anchor="start" x="71" y="-70.8" font-family="Helvetica,Arial,sans-serif" font-size="9.00"> &#160;&#160;&#160;&#160;&#160;&#160;&#160;&#160;&#160;&#160;&#160;&#160;&#160;• </text>
<text text-anchor="start" x="108" y="-70.8" font-family="Helvetica,Arial,sans-serif" font-weight="bold" font-size="9.00">Dataflow Flexibility:</text>
<text text-anchor="start" x="192" y="-70.8" font-family="Helvetica,Arial,sans-serif" font-size="9.00"> </text>
<text text-anchor="start" x="195" y="-70.8" font-family="Helvetica,Arial,sans-serif" font-size="9.00" fill="#dc2626">Rigid (WS Pinned)</text>
<text text-anchor="start" x="63.5" y="-61.8" font-family="Helvetica,Arial,sans-serif" font-size="9.00"> &#160;&#160;&#160;&#160;&#160;&#160;&#160;&#160;&#160;&#160;&#160;&#160;&#160;• </text>
<text text-anchor="start" x="100.5" y="-61.8" font-family="Helvetica,Arial,sans-serif" font-weight="bold" font-size="9.00">Execution Mode:</text>
<text text-anchor="start" x="172.5" y="-61.8" font-family="Helvetica,Arial,sans-serif" font-size="9.00"> Concurrent Co&#45;Execution</text>
<text text-anchor="start" x="68" y="-52.8" font-family="Helvetica,Arial,sans-serif" font-size="9.00"> &#160;&#160;&#160;&#160;&#160;&#160;&#160;&#160;&#160;&#160;&#160;&#160;&#160;• </text>
<text text-anchor="start" x="105" y="-52.8" font-family="Helvetica,Arial,sans-serif" font-weight="bold" font-size="9.00">Limitation:</text>
<text text-anchor="start" x="151" y="-52.8" font-family="Helvetica,Arial,sans-serif" font-size="9.00"> Inefficient on Attention (Q·K</text>
<text text-anchor="start" x="265" y="-52.8" font-family="Helvetica,Arial,sans-serif" baseline-shift="super" font-size="9.00">T</text>
<text text-anchor="start" x="270" y="-52.8" font-family="Helvetica,Arial,sans-serif" font-size="9.00">)</text>
<text text-anchor="start" x="45" y="-43.8" font-family="Helvetica,Arial,sans-serif" font-size="9.00"> &#160;&#160;&#160;&#160;&#160;&#160;&#160;&#160;&#160;&#160;&#160;&#160;&#160;• </text>
<text text-anchor="start" x="82" y="-43.8" font-family="Helvetica,Arial,sans-serif" font-weight="bold" font-size="9.00">Memory Architecture:</text>
<text text-anchor="start" x="177" y="-43.8" font-family="Helvetica,Arial,sans-serif" font-size="9.00"> Shared Banks + EPPA &#160;&#160;&#160;&#160;&#160;&#160;&#160;&#160;&#160;&#160;&#160;</text>
<polygon fill="#f8fafc" stroke="transparent" points="366,-20 366,-278 692,-278 692,-20 366,-20"/>
<polygon fill="none" stroke="#94a3b8" points="366,-20 366,-278 692,-278 692,-20 366,-20"/>
<polygon fill="#475569" stroke="transparent" points="383,-240 383,-261 653,-261 653,-240 383,-240"/>
<text text-anchor="start" x="472.5" y="-248.4" font-family="Helvetica,Arial,sans-serif" font-weight="bold" font-size="12.00" fill="#ffffff">Configuration B</text>
<text text-anchor="start" x="438" y="-224.2" font-family="Helvetica,Arial,sans-serif" font-weight="bold" font-size="11.00">Sequential Dataflow Switching</text>
<text text-anchor="start" x="449.5" y="-214.8" font-family="Helvetica,Arial,sans-serif" font-size="9.00" fill="#64748b">(ReDas / Single&#45;Tenant Baseline)</text>
<polygon fill="#cbd5e1" stroke="transparent" points="383,-196 383,-204 653,-204 653,-196 383,-196"/>
<polygon fill="#e2e8f0" stroke="transparent" points="389,-156 389,-186 647,-186 647,-156 389,-156"/>
<polygon fill="none" stroke="#cbd5e1" points="389,-156 389,-186 647,-186 647,-156 389,-156"/>
<text text-anchor="start" x="465" y="-173.8" font-family="Helvetica,Arial,sans-serif" font-weight="bold" font-size="9.00">Single Tenant (Cols 0&#45;15)</text>
<text text-anchor="start" x="456" y="-164.8" font-family="Helvetica,Arial,sans-serif" font-size="9.00">Full Array Mux: </text>
<text text-anchor="start" x="520" y="-164.8" font-family="Helvetica,Arial,sans-serif" font-weight="bold" font-size="9.00">WS ⇄ OS ⇄ IS</text>
<polygon fill="#ffffff" stroke="transparent" points="389,-134 389,-155 426,-155 426,-134 389,-134"/>
<polygon fill="none" stroke="#cbd5e1" points="389,-134 389,-155 426,-155 426,-134 389,-134"/>
<text text-anchor="start" x="402" y="-142.6" font-family="Helvetica,Arial,sans-serif" font-size="8.00">PE</text>
<polygon fill="#ffffff" stroke="transparent" points="427,-134 427,-155 464,-155 464,-134 427,-134"/>
<polygon fill="none" stroke="#cbd5e1" points="427,-134 427,-155 464,-155 464,-134 427,-134"/>
<text text-anchor="start" x="440" y="-142.6" font-family="Helvetica,Arial,sans-serif" font-size="8.00">PE</text>
<polygon fill="#ffffff" stroke="transparent" points="465,-134 465,-155 501,-155 501,-134 465,-134"/>
<polygon fill="none" stroke="#cbd5e1" points="465,-134 465,-155 501,-155 501,-134 465,-134"/>
<text text-anchor="start" x="477.5" y="-142.6" font-family="Helvetica,Arial,sans-serif" font-size="8.00">PE</text>
<polygon fill="#ffffff" stroke="transparent" points="502,-134 502,-155 538,-155 538,-134 502,-134"/>
<polygon fill="none" stroke="#cbd5e1" points="502,-134 502,-155 538,-155 538,-134 502,-134"/>
<text text-anchor="start" x="514.5" y="-142.6" font-family="Helvetica,Arial,sans-serif" font-size="8.00">PE</text>
<polygon fill="#ffffff" stroke="transparent" points="539,-134 539,-155 575,-155 575,-134 539,-134"/>
<polygon fill="none" stroke="#cbd5e1" points="539,-134 539,-155 575,-155 575,-134 539,-134"/>
<text text-anchor="start" x="551.5" y="-142.6" font-family="Helvetica,Arial,sans-serif" font-size="8.00">PE</text>
<polygon fill="#ffffff" stroke="transparent" points="576,-134 576,-155 612,-155 612,-134 576,-134"/>
<polygon fill="none" stroke="#cbd5e1" points="576,-134 576,-155 612,-155 612,-134 576,-134"/>
<text text-anchor="start" x="588.5" y="-142.6" font-family="Helvetica,Arial,sans-serif" font-size="8.00">PE</text>
<polygon fill="#ffffff" stroke="transparent" points="613,-134 613,-155 647,-155 647,-134 613,-134"/>
<polygon fill="none" stroke="#cbd5e1" points="613,-134 613,-155 647,-155 647,-134 613,-134"/>
<text text-anchor="start" x="625.5" y="-142.6" font-family="Helvetica,Arial,sans-serif" font-size="8.00">…</text>
<polygon fill="#ffffff" stroke="transparent" points="389,-112 389,-133 426,-133 426,-112 389,-112"/>
<polygon fill="none" stroke="#cbd5e1" points="389,-112 389,-133 426,-133 426,-112 389,-112"/>
<text text-anchor="start" x="402" y="-120.6" font-family="Helvetica,Arial,sans-serif" font-size="8.00">PE</text>
<polygon fill="#ffffff" stroke="transparent" points="427,-112 427,-133 464,-133 464,-112 427,-112"/>
<polygon fill="none" stroke="#cbd5e1" points="427,-112 427,-133 464,-133 464,-112 427,-112"/>
<text text-anchor="start" x="440" y="-120.6" font-family="Helvetica,Arial,sans-serif" font-size="8.00">PE</text>
<polygon fill="#ffffff" stroke="transparent" points="465,-112 465,-133 501,-133 501,-112 465,-112"/>
<polygon fill="none" stroke="#cbd5e1" points="465,-112 465,-133 501,-133 501,-112 465,-112"/>
<text text-anchor="start" x="477.5" y="-120.6" font-family="Helvetica,Arial,sans-serif" font-size="8.00">PE</text>
<polygon fill="#ffffff" stroke="transparent" points="502,-112 502,-133 538,-133 538,-112 502,-112"/>
<polygon fill="none" stroke="#cbd5e1" points="502,-112 502,-133 538,-133 538,-112 502,-112"/>
<text text-anchor="start" x="514.5" y="-120.6" font-family="Helvetica,Arial,sans-serif" font-size="8.00">PE</text>
<polygon fill="#ffffff" stroke="transparent" points="539,-112 539,-133 575,-133 575,-112 539,-112"/>
<polygon fill="none" stroke="#cbd5e1" points="539,-112 539,-133 575,-133 575,-112 539,-112"/>
<text text-anchor="start" x="551.5" y="-120.6" font-family="Helvetica,Arial,sans-serif" font-size="8.00">PE</text>
<polygon fill="#ffffff" stroke="transparent" points="576,-112 576,-133 612,-133 612,-112 576,-112"/>
<polygon fill="none" stroke="#cbd5e1" points="576,-112 576,-133 612,-133 612,-112 576,-112"/>
<text text-anchor="start" x="588.5" y="-120.6" font-family="Helvetica,Arial,sans-serif" font-size="8.00">PE</text>
<polygon fill="#ffffff" stroke="transparent" points="613,-112 613,-133 647,-133 647,-112 613,-112"/>
<polygon fill="none" stroke="#cbd5e1" points="613,-112 613,-133 647,-133 647,-112 613,-112"/>
<text text-anchor="start" x="625.5" y="-120.6" font-family="Helvetica,Arial,sans-serif" font-size="8.00">…</text>
<polygon fill="none" stroke="#cbd5e1" points="387,-110 387,-188 649,-188 649,-110 387,-110"/>
<polygon fill="#cbd5e1" stroke="transparent" points="383,-94 383,-102 653,-102 653,-94 383,-94"/>
<text text-anchor="start" x="412.5" y="-79.8" font-family="Helvetica,Arial,sans-serif" font-size="9.00"> &#160;&#160;&#160;&#160;&#160;&#160;&#160;&#160;&#160;&#160;&#160;&#160;&#160;• </text>
<text text-anchor="start" x="449.5" y="-79.8" font-family="Helvetica,Arial,sans-serif" font-weight="bold" font-size="9.00">Spatial Multi&#45;Tenancy:</text>
<text text-anchor="start" x="543.5" y="-79.8" font-family="Helvetica,Arial,sans-serif" font-size="9.00"> </text>
<text text-anchor="start" x="546.5" y="-79.8" font-family="Helvetica,Arial,sans-serif" font-size="9.00" fill="#dc2626">No (Single Tenant)</text>
<text text-anchor="start" x="417.5" y="-70.8" font-family="Helvetica,Arial,sans-serif" font-size="9.00"> &#160;&#160;&#160;&#160;&#160;&#160;&#160;&#160;&#160;&#160;&#160;&#160;&#160;• </text>
<text text-anchor="start" x="454.5" y="-70.8" font-family="Helvetica,Arial,sans-serif" font-weight="bold" font-size="9.00">Dataflow Flexibility:</text>
<text text-anchor="start" x="538.5" y="-70.8" font-family="Helvetica,Arial,sans-serif" font-size="9.00"> </text>
<text text-anchor="start" x="541.5" y="-70.8" font-family="Helvetica,Arial,sans-serif" font-size="9.00" fill="#16a34a">High (WS / OS / IS)</text>
<text text-anchor="start" x="419.5" y="-61.8" font-family="Helvetica,Arial,sans-serif" font-size="9.00"> &#160;&#160;&#160;&#160;&#160;&#160;&#160;&#160;&#160;&#160;&#160;&#160;&#160;• </text>
<text text-anchor="start" x="456.5" y="-61.8" font-family="Helvetica,Arial,sans-serif" font-weight="bold" font-size="9.00">Execution Mode:</text>
<text text-anchor="start" x="528.5" y="-61.8" font-family="Helvetica,Arial,sans-serif" font-size="9.00"> Serial Tile Sequence</text>
<text text-anchor="start" x="395.5" y="-52.8" font-family="Helvetica,Arial,sans-serif" font-size="9.00"> &#160;&#160;&#160;&#160;&#160;&#160;&#160;&#160;&#160;&#160;&#160;&#160;&#160;• </text>
<text text-anchor="start" x="432.5" y="-52.8" font-family="Helvetica,Arial,sans-serif" font-weight="bold" font-size="9.00">Limitation:</text>
<text text-anchor="start" x="478.5" y="-52.8" font-family="Helvetica,Arial,sans-serif" font-size="9.00"> Head&#45;of&#45;Line Multi&#45;Model Queue Stalls</text>
<text text-anchor="start" x="387" y="-43.8" font-family="Helvetica,Arial,sans-serif" font-size="9.00"> &#160;&#160;&#160;&#160;&#160;&#160;&#160;&#160;&#160;&#160;&#160;&#160;&#160;• </text>
<text text-anchor="start" x="424" y="-43.8" font-family="Helvetica,Arial,sans-serif" font-weight="bold" font-size="9.00">Memory Architecture:</text>
<text text-anchor="start" x="519" y="-43.8" font-family="Helvetica,Arial,sans-serif" font-size="9.00"> Unified Dedicated Buffer &#160;&#160;&#160;&#160;&#160;&#160;&#160;&#160;&#160;&#160;&#160;</text>
<polygon fill="#fefce8" stroke="transparent" points="708,-20 708,-278 1054,-278 1054,-20 708,-20"/>
<polygon fill="none" stroke="#ca8a04" points="708,-20 708,-278 1054,-278 1054,-20 708,-20"/>
<polygon fill="#d97706" stroke="transparent" points="725,-240 725,-261 1019,-261 1019,-240 725,-240"/>
<text text-anchor="start" x="807" y="-248.4" font-family="Helvetica,Arial,sans-serif" font-weight="bold" font-size="12.00" fill="#ffffff">Configuration C (Ours)</text>
<text text-anchor="start" x="811" y="-224.2" font-family="Helvetica,Arial,sans-serif" font-weight="bold" font-size="11.00">Heterogeneous Fission</text>
<text text-anchor="start" x="791.5" y="-214.8" font-family="Helvetica,Arial,sans-serif" font-weight="bold" font-size="9.00" fill="#b45309">★ PolyFlow&#45;NPU Proposed Novelty ★</text>
<polygon fill="#fde047" stroke="transparent" points="725,-196 725,-204 1019,-204 1019,-196 725,-196"/>
<polygon fill="#bae6fd" stroke="transparent" points="731,-156 731,-186 864,-186 864,-156 731,-156"/>
<polygon fill="none" stroke="#ca8a04" points="731,-156 731,-186 864,-186 864,-156 731,-156"/>
<text text-anchor="start" x="756.5" y="-173.8" font-family="Helvetica,Arial,sans-serif" font-weight="bold" font-size="9.00">Region A (Cols 0&#45;7)</text>
<text text-anchor="start" x="749.5" y="-164.8" font-family="Helvetica,Arial,sans-serif" font-size="9.00">Mode: </text>
<text text-anchor="start" x="777.5" y="-164.8" font-family="Helvetica,Arial,sans-serif" font-weight="bold" font-size="9.00">WS (CNN Conv)</text>
<polygon fill="#ef4444" stroke="transparent" points="865,-156 865,-186 888,-186 888,-156 865,-156"/>
<polygon fill="none" stroke="#ca8a04" points="865,-156 865,-186 888,-186 888,-156 865,-156"/>
<text text-anchor="start" x="874.5" y="-170.1" font-family="Helvetica,Arial,sans-serif" font-weight="bold" font-size="8.00" fill="#ffffff">‖</text>
<polygon fill="#fef08a" stroke="transparent" points="889,-156 889,-186 1013,-186 1013,-156 889,-156"/>
<polygon fill="none" stroke="#ca8a04" points="889,-156 889,-186 1013,-186 1013,-156 889,-156"/>
<text text-anchor="start" x="907" y="-173.8" font-family="Helvetica,Arial,sans-serif" font-weight="bold" font-size="9.00">Region B (Cols 8&#45;15)</text>
<text text-anchor="start" x="906.5" y="-164.8" font-family="Helvetica,Arial,sans-serif" font-size="9.00">Mode: </text>
<text text-anchor="start" x="934.5" y="-164.8" font-family="Helvetica,Arial,sans-serif" font-weight="bold" font-size="9.00">OS (Attention)</text>
<polygon fill="#f0f9ff" stroke="transparent" points="731,-134 731,-155 782,-155 782,-134 731,-134"/>
<polygon fill="none" stroke="#ca8a04" points="731,-134 731,-155 782,-155 782,-134 731,-134"/>
<text text-anchor="start" x="751" y="-142.6" font-family="Helvetica,Arial,sans-serif" font-size="8.00">PE</text>
<polygon fill="#f0f9ff" stroke="transparent" points="783,-134 783,-155 824,-155 824,-134 783,-134"/>
<polygon fill="none" stroke="#ca8a04" points="783,-134 783,-155 824,-155 824,-134 783,-134"/>
<text text-anchor="start" x="798" y="-142.6" font-family="Helvetica,Arial,sans-serif" font-size="8.00">PE</text>
<polygon fill="#f0f9ff" stroke="transparent" points="825,-134 825,-155 864,-155 864,-134 825,-134"/>
<polygon fill="none" stroke="#ca8a04" points="825,-134 825,-155 864,-155 864,-134 825,-134"/>
<text text-anchor="start" x="840" y="-142.6" font-family="Helvetica,Arial,sans-serif" font-size="8.00">…</text>
<polygon fill="#ef4444" stroke="transparent" points="865,-134 865,-155 888,-155 888,-134 865,-134"/>
<polygon fill="none" stroke="#ca8a04" points="865,-134 865,-155 888,-155 888,-134 865,-134"/>
<text text-anchor="start" x="874.5" y="-143.6" font-family="Helvetica,Arial,sans-serif" font-weight="bold" font-size="8.00" fill="#ffffff">‖</text>
<polygon fill="#fefce8" stroke="transparent" points="889,-134 889,-155 936,-155 936,-134 889,-134"/>
<polygon fill="none" stroke="#ca8a04" points="889,-134 889,-155 936,-155 936,-134 889,-134"/>
<text text-anchor="start" x="907" y="-142.6" font-family="Helvetica,Arial,sans-serif" font-size="8.00">PE</text>
<polygon fill="#fefce8" stroke="transparent" points="937,-134 937,-155 975,-155 975,-134 937,-134"/>
<polygon fill="none" stroke="#ca8a04" points="937,-134 937,-155 975,-155 975,-134 937,-134"/>
<text text-anchor="start" x="950.5" y="-142.6" font-family="Helvetica,Arial,sans-serif" font-size="8.00">PE</text>
<polygon fill="#fefce8" stroke="transparent" points="976,-134 976,-155 1013,-155 1013,-134 976,-134"/>
<polygon fill="none" stroke="#ca8a04" points="976,-134 976,-155 1013,-155 1013,-134 976,-134"/>
<text text-anchor="start" x="990" y="-142.6" font-family="Helvetica,Arial,sans-serif" font-size="8.00">…</text>
<polygon fill="#f0f9ff" stroke="transparent" points="731,-112 731,-133 782,-133 782,-112 731,-112"/>
<polygon fill="none" stroke="#ca8a04" points="731,-112 731,-133 782,-133 782,-112 731,-112"/>
<text text-anchor="start" x="751" y="-120.6" font-family="Helvetica,Arial,sans-serif" font-size="8.00">PE</text>
<polygon fill="#f0f9ff" stroke="transparent" points="783,-112 783,-133 824,-133 824,-112 783,-112"/>
<polygon fill="none" stroke="#ca8a04" points="783,-112 783,-133 824,-133 824,-112 783,-112"/>
<text text-anchor="start" x="798" y="-120.6" font-family="Helvetica,Arial,sans-serif" font-size="8.00">PE</text>
<polygon fill="#f0f9ff" stroke="transparent" points="825,-112 825,-133 864,-133 864,-112 825,-112"/>
<polygon fill="none" stroke="#ca8a04" points="825,-112 825,-133 864,-133 864,-112 825,-112"/>
<text text-anchor="start" x="840" y="-120.6" font-family="Helvetica,Arial,sans-serif" font-size="8.00">…</text>
<polygon fill="#ef4444" stroke="transparent" points="865,-112 865,-133 888,-133 888,-112 865,-112"/>
<polygon fill="none" stroke="#ca8a04" points="865,-112 865,-133 888,-133 888,-112 865,-112"/>
<text text-anchor="start" x="874.5" y="-121.6" font-family="Helvetica,Arial,sans-serif" font-weight="bold" font-size="8.00" fill="#ffffff">‖</text>
<polygon fill="#fefce8" stroke="transparent" points="889,-112 889,-133 936,-133 936,-112 889,-112"/>
<polygon fill="none" stroke="#ca8a04" points="889,-112 889,-133 936,-133 936,-112 889,-112"/>
<text text-anchor="start" x="907" y="-120.6" font-family="Helvetica,Arial,sans-serif" font-size="8.00">PE</text>
<polygon fill="#fefce8" stroke="transparent" points="937,-112 937,-133 975,-133 975,-112 937,-112"/>
<polygon fill="none" stroke="#ca8a04" points="937,-112 937,-133 975,-133 975,-112 937,-112"/>
<text text-anchor="start" x="950.5" y="-120.6" font-family="Helvetica,Arial,sans-serif" font-size="8.00">PE</text>
<polygon fill="#fefce8" stroke="transparent" points="976,-112 976,-133 1013,-133 1013,-112 976,-112"/>
<polygon fill="none" stroke="#ca8a04" points="976,-112 976,-133 1013,-133 1013,-112 976,-112"/>
<text text-anchor="start" x="990" y="-120.6" font-family="Helvetica,Arial,sans-serif" font-size="8.00">…</text>
<polygon fill="none" stroke="#ca8a04" points="729,-110 729,-188 1015,-188 1015,-110 729,-110"/>
<polygon fill="#fde047" stroke="transparent" points="725,-94 725,-102 1019,-102 1019,-94 725,-94"/>
<text text-anchor="start" x="757" y="-79.8" font-family="Helvetica,Arial,sans-serif" font-size="9.00"> &#160;&#160;&#160;&#160;&#160;&#160;&#160;&#160;&#160;&#160;&#160;&#160;&#160;• </text>
<text text-anchor="start" x="794" y="-79.8" font-family="Helvetica,Arial,sans-serif" font-weight="bold" font-size="9.00">Spatial Multi&#45;Tenancy:</text>
<text text-anchor="start" x="888" y="-79.8" font-family="Helvetica,Arial,sans-serif" font-size="9.00"> </text>
<text text-anchor="start" x="891" y="-79.8" font-family="Helvetica,Arial,sans-serif" font-weight="bold" font-size="9.00" fill="#16a34a">Yes (Dynamic Fission)</text>
<text text-anchor="start" x="751" y="-70.8" font-family="Helvetica,Arial,sans-serif" font-size="9.00"> &#160;&#160;&#160;&#160;&#160;&#160;&#160;&#160;&#160;&#160;&#160;&#160;&#160;• </text>
<text text-anchor="start" x="788" y="-70.8" font-family="Helvetica,Arial,sans-serif" font-weight="bold" font-size="9.00">Dataflow Flexibility:</text>
<text text-anchor="start" x="872" y="-70.8" font-family="Helvetica,Arial,sans-serif" font-size="9.00"> </text>
<text text-anchor="start" x="875" y="-70.8" font-family="Helvetica,Arial,sans-serif" font-weight="bold" font-size="9.00" fill="#16a34a">Per&#45;Region Free (WS/OS/IS)</text>
<text text-anchor="start" x="735" y="-61.8" font-family="Helvetica,Arial,sans-serif" font-size="9.00"> &#160;&#160;&#160;&#160;&#160;&#160;&#160;&#160;&#160;&#160;&#160;&#160;&#160;• </text>
<text text-anchor="start" x="772" y="-61.8" font-family="Helvetica,Arial,sans-serif" font-weight="bold" font-size="9.00">Execution Mode:</text>
<text text-anchor="start" x="844" y="-61.8" font-family="Helvetica,Arial,sans-serif" font-size="9.00"> </text>
<text text-anchor="start" x="847" y="-61.8" font-family="Helvetica,Arial,sans-serif" font-weight="bold" font-size="9.00">Simultaneous Heterogeneous Co&#45;Run</text>
<text text-anchor="start" x="743" y="-52.8" font-family="Helvetica,Arial,sans-serif" font-size="9.00"> &#160;&#160;&#160;&#160;&#160;&#160;&#160;&#160;&#160;&#160;&#160;&#160;&#160;• </text>
<text text-anchor="start" x="780" y="-52.8" font-family="Helvetica,Arial,sans-serif" font-weight="bold" font-size="9.00">Hardware Safety:</text>
<text text-anchor="start" x="856" y="-52.8" font-family="Helvetica,Arial,sans-serif" font-size="9.00"> Dynamic Boundary Zeroing Barrier</text>
<text text-anchor="start" x="729" y="-43.8" font-family="Helvetica,Arial,sans-serif" font-size="9.00"> &#160;&#160;&#160;&#160;&#160;&#160;&#160;&#160;&#160;&#160;&#160;&#160;&#160;• </text>
<text text-anchor="start" x="766" y="-43.8" font-family="Helvetica,Arial,sans-serif" font-weight="bold" font-size="9.00">Security Substrate:</text>
<text text-anchor="start" x="850" y="-43.8" font-family="Helvetica,Arial,sans-serif" font-size="9.00"> EPPA + OTP Token + 4&#45;cyc Scrub &#160;&#160;&#160;&#160;&#160;&#160;&#160;&#160;&#160;&#160;&#160;</text>
</g>
</g>
</svg>
