<?xml version="1.0" encoding="UTF-8" standalone="no"?>
<!DOCTYPE svg PUBLIC "-//W3C//DTD SVG 1.1//EN"
 "http://www.w3.org/Graphics/SVG/1.1/DTD/svg11.dtd">
<!-- Generated by graphviz version 2.43.0 (0)
 -->
<!-- Title: STRIP Pages: 1 -->
<svg width="1092pt" height="314pt"
 viewBox="0.00 0.00 1091.80 313.80" xmlns="http://www.w3.org/2000/svg" xmlns:xlink="http://www.w3.org/1999/xlink">
<g id="graph0" class="graph" transform="scale(1 1) rotate(0) translate(14.4 299.4)">
<title>STRIP</title>
<polygon fill="white" stroke="transparent" points="-14.4,14.4 -14.4,-299.4 1077.4,-299.4 1077.4,14.4 -14.4,14.4"/>
<text text-anchor="middle" x="531.5" y="-7.8" font-family="DejaVu Sans" font-size="14.00">DRDS&#45;NPU evaluation configurations at a glance</text>
<!-- strip -->
<g id="node1" class="node">
<title>strip</title>
<polygon fill="#ffffff" stroke="transparent" points="18.5,-120 18.5,-271 351.5,-271 351.5,-120 18.5,-120"/>
<polygon fill="none" stroke="black" points="18.5,-120 18.5,-271 351.5,-271 351.5,-120 18.5,-120"/>
<polygon fill="#dae8fc" stroke="transparent" points="31.5,-227 31.5,-258 172.5,-258 172.5,-227 31.5,-227"/>
<polygon fill="none" stroke="black" points="31.5,-227 31.5,-258 172.5,-258 172.5,-227 31.5,-227"/>
<text text-anchor="start" x="42.5" y="-241" font-family="DejaVu Sans" font-weight="bold" font-size="10.00">Region A</text>
<text text-anchor="start" x="93.5" y="-241" font-family="DejaVu Sans" font-size="10.00"> — WS pinned</text>
<polygon fill="#ffcccc" stroke="transparent" points="174.5,-227 174.5,-258 195.5,-258 195.5,-227 174.5,-227"/>
<polygon fill="none" stroke="black" points="174.5,-227 174.5,-258 195.5,-258 195.5,-227 174.5,-227"/>
<text text-anchor="start" x="182.5" y="-238.8" font-family="DejaVu Sans" font-size="14.00"> </text>
<polygon fill="#d5e8d4" stroke="transparent" points="197.5,-227 197.5,-258 338.5,-258 338.5,-227 197.5,-227"/>
<polygon fill="none" stroke="black" points="197.5,-227 197.5,-258 338.5,-258 338.5,-227 197.5,-227"/>
<text text-anchor="start" x="208.5" y="-241" font-family="DejaVu Sans" font-weight="bold" font-size="10.00">Region B</text>
<text text-anchor="start" x="259.5" y="-241" font-family="DejaVu Sans" font-size="10.00"> — WS pinned</text>
<polygon fill="none" stroke="black" points="31.5,-194 31.5,-225 66.5,-225 66.5,-194 31.5,-194"/>
<text text-anchor="start" x="40" y="-205.8" font-family="DejaVu Sans" font-size="14.00">PE</text>
<polygon fill="none" stroke="black" points="68.5,-194 68.5,-225 102.5,-225 102.5,-194 68.5,-194"/>
<text text-anchor="start" x="76.5" y="-205.8" font-family="DejaVu Sans" font-size="14.00">PE</text>
<polygon fill="none" stroke="black" points="104.5,-194 104.5,-225 138.5,-225 138.5,-194 104.5,-194"/>
<text text-anchor="start" x="112.5" y="-205.8" font-family="DejaVu Sans" font-size="14.00">PE</text>
<polygon fill="none" stroke="black" points="140.5,-194 140.5,-225 172.5,-225 172.5,-194 140.5,-194"/>
<text text-anchor="start" x="149" y="-205.8" font-family="DejaVu Sans" font-size="14.00">…</text>
<polygon fill="#ffcccc" stroke="transparent" points="174.5,-194 174.5,-225 195.5,-225 195.5,-194 174.5,-194"/>
<polygon fill="none" stroke="black" points="174.5,-194 174.5,-225 195.5,-225 195.5,-194 174.5,-194"/>
<text text-anchor="start" x="182.5" y="-205.8" font-family="DejaVu Sans" font-size="14.00"> </text>
<polygon fill="none" stroke="black" points="197.5,-194 197.5,-225 232.5,-225 232.5,-194 197.5,-194"/>
<text text-anchor="start" x="206" y="-205.8" font-family="DejaVu Sans" font-size="14.00">PE</text>
<polygon fill="none" stroke="black" points="234.5,-194 234.5,-225 268.5,-225 268.5,-194 234.5,-194"/>
<text text-anchor="start" x="242.5" y="-205.8" font-family="DejaVu Sans" font-size="14.00">PE</text>
<polygon fill="none" stroke="black" points="270.5,-194 270.5,-225 304.5,-225 304.5,-194 270.5,-194"/>
<text text-anchor="start" x="278.5" y="-205.8" font-family="DejaVu Sans" font-size="14.00">PE</text>
<polygon fill="none" stroke="black" points="306.5,-194 306.5,-225 338.5,-225 338.5,-194 306.5,-194"/>
<text text-anchor="start" x="315" y="-205.8" font-family="DejaVu Sans" font-size="14.00">…</text>
<polygon fill="none" stroke="black" points="31.5,-161 31.5,-192 66.5,-192 66.5,-161 31.5,-161"/>
<text text-anchor="start" x="40" y="-172.8" font-family="DejaVu Sans" font-size="14.00">PE</text>
<polygon fill="none" stroke="black" points="68.5,-161 68.5,-192 102.5,-192 102.5,-161 68.5,-161"/>
<text text-anchor="start" x="76.5" y="-172.8" font-family="DejaVu Sans" font-size="14.00">PE</text>
<polygon fill="none" stroke="black" points="104.5,-161 104.5,-192 138.5,-192 138.5,-161 104.5,-161"/>
<text text-anchor="start" x="112.5" y="-172.8" font-family="DejaVu Sans" font-size="14.00">PE</text>
<polygon fill="none" stroke="black" points="140.5,-161 140.5,-192 172.5,-192 172.5,-161 140.5,-161"/>
<text text-anchor="start" x="149" y="-172.8" font-family="DejaVu Sans" font-size="14.00">…</text>
<polygon fill="#ffcccc" stroke="transparent" points="174.5,-161 174.5,-192 195.5,-192 195.5,-161 174.5,-161"/>
<polygon fill="none" stroke="black" points="174.5,-161 174.5,-192 195.5,-192 195.5,-161 174.5,-161"/>
<text text-anchor="start" x="182.5" y="-172.8" font-family="DejaVu Sans" font-size="14.00"> </text>
<polygon fill="none" stroke="black" points="197.5,-161 197.5,-192 232.5,-192 232.5,-161 197.5,-161"/>
<text text-anchor="start" x="206" y="-172.8" font-family="DejaVu Sans" font-size="14.00">PE</text>
<polygon fill="none" stroke="black" points="234.5,-161 234.5,-192 268.5,-192 268.5,-161 234.5,-161"/>
<text text-anchor="start" x="242.5" y="-172.8" font-family="DejaVu Sans" font-size="14.00">PE</text>
<polygon fill="none" stroke="black" points="270.5,-161 270.5,-192 304.5,-192 304.5,-161 270.5,-161"/>
<text text-anchor="start" x="278.5" y="-172.8" font-family="DejaVu Sans" font-size="14.00">PE</text>
<polygon fill="none" stroke="black" points="306.5,-161 306.5,-192 338.5,-192 338.5,-161 306.5,-161"/>
<text text-anchor="start" x="315" y="-172.8" font-family="DejaVu Sans" font-size="14.00">…</text>
<polygon fill="#ffffff" stroke="transparent" points="31.5,-133 31.5,-159 338.5,-159 338.5,-133 31.5,-133"/>
<polygon fill="none" stroke="black" points="31.5,-133 31.5,-159 338.5,-159 338.5,-133 31.5,-133"/>
<text text-anchor="start" x="63" y="-143.8" font-family="DejaVu Sans" font-size="9.00">split + concurrent · both muxes forced to PIN_DFLOW</text>
<polygon fill="#ffffff" stroke="transparent" points="361.5,-120 361.5,-271 706.5,-271 706.5,-120 361.5,-120"/>
<polygon fill="none" stroke="black" points="361.5,-120 361.5,-271 706.5,-271 706.5,-120 361.5,-120"/>
<polygon fill="#dae8fc" stroke="transparent" points="374.5,-230 374.5,-258 693.5,-258 693.5,-230 374.5,-230"/>
<polygon fill="none" stroke="black" points="374.5,-230 374.5,-258 693.5,-258 693.5,-230 374.5,-230"/>
<text text-anchor="start" x="462" y="-242.5" font-family="DejaVu Sans" font-weight="bold" font-size="10.00">Tenant</text>
<text text-anchor="start" x="499" y="-242.5" font-family="DejaVu Sans" font-size="10.00"> — full span cols 0–15</text>
<polygon fill="none" stroke="black" points="374.5,-196 374.5,-228 408.5,-228 408.5,-196 374.5,-196"/>
<text text-anchor="start" x="382.5" y="-208.3" font-family="DejaVu Sans" font-size="14.00">PE</text>
<polygon fill="none" stroke="black" points="410.5,-196 410.5,-228 444.5,-228 444.5,-196 410.5,-196"/>
<text text-anchor="start" x="418.5" y="-208.3" font-family="DejaVu Sans" font-size="14.00">PE</text>
<polygon fill="none" stroke="black" points="446.5,-196 446.5,-228 480.5,-228 480.5,-196 446.5,-196"/>
<text text-anchor="start" x="454.5" y="-208.3" font-family="DejaVu Sans" font-size="14.00">PE</text>
<polygon fill="none" stroke="black" points="482.5,-196 482.5,-228 516.5,-228 516.5,-196 482.5,-196"/>
<text text-anchor="start" x="490.5" y="-208.3" font-family="DejaVu Sans" font-size="14.00">PE</text>
<polygon fill="none" stroke="black" points="518.5,-196 518.5,-228 552.5,-228 552.5,-196 518.5,-196"/>
<text text-anchor="start" x="526.5" y="-208.3" font-family="DejaVu Sans" font-size="14.00">PE</text>
<polygon fill="none" stroke="black" points="554.5,-196 554.5,-228 588.5,-228 588.5,-196 554.5,-196"/>
<text text-anchor="start" x="562.5" y="-208.3" font-family="DejaVu Sans" font-size="14.00">PE</text>
<polygon fill="none" stroke="black" points="590.5,-196 590.5,-228 624.5,-228 624.5,-196 590.5,-196"/>
<text text-anchor="start" x="598.5" y="-208.3" font-family="DejaVu Sans" font-size="14.00">PE</text>
<polygon fill="none" stroke="black" points="626.5,-196 626.5,-228 660.5,-228 660.5,-196 626.5,-196"/>
<text text-anchor="start" x="634.5" y="-208.3" font-family="DejaVu Sans" font-size="14.00">PE</text>
<polygon fill="none" stroke="black" points="662.5,-196 662.5,-228 693.5,-228 693.5,-196 662.5,-196"/>
<text text-anchor="start" x="670.5" y="-208.3" font-family="DejaVu Sans" font-size="14.00">…</text>
<polygon fill="none" stroke="black" points="374.5,-162 374.5,-194 408.5,-194 408.5,-162 374.5,-162"/>
<text text-anchor="start" x="382.5" y="-174.3" font-family="DejaVu Sans" font-size="14.00">PE</text>
<polygon fill="none" stroke="black" points="410.5,-162 410.5,-194 444.5,-194 444.5,-162 410.5,-162"/>
<text text-anchor="start" x="418.5" y="-174.3" font-family="DejaVu Sans" font-size="14.00">PE</text>
<polygon fill="none" stroke="black" points="446.5,-162 446.5,-194 480.5,-194 480.5,-162 446.5,-162"/>
<text text-anchor="start" x="454.5" y="-174.3" font-family="DejaVu Sans" font-size="14.00">PE</text>
<polygon fill="none" stroke="black" points="482.5,-162 482.5,-194 516.5,-194 516.5,-162 482.5,-162"/>
<text text-anchor="start" x="490.5" y="-174.3" font-family="DejaVu Sans" font-size="14.00">PE</text>
<polygon fill="none" stroke="black" points="518.5,-162 518.5,-194 552.5,-194 552.5,-162 518.5,-162"/>
<text text-anchor="start" x="526.5" y="-174.3" font-family="DejaVu Sans" font-size="14.00">PE</text>
<polygon fill="none" stroke="black" points="554.5,-162 554.5,-194 588.5,-194 588.5,-162 554.5,-162"/>
<text text-anchor="start" x="562.5" y="-174.3" font-family="DejaVu Sans" font-size="14.00">PE</text>
<polygon fill="none" stroke="black" points="590.5,-162 590.5,-194 624.5,-194 624.5,-162 590.5,-162"/>
<text text-anchor="start" x="598.5" y="-174.3" font-family="DejaVu Sans" font-size="14.00">PE</text>
<polygon fill="none" stroke="black" points="626.5,-162 626.5,-194 660.5,-194 660.5,-162 626.5,-162"/>
<text text-anchor="start" x="634.5" y="-174.3" font-family="DejaVu Sans" font-size="14.00">PE</text>
<polygon fill="none" stroke="black" points="662.5,-162 662.5,-194 693.5,-194 693.5,-162 662.5,-162"/>
<text text-anchor="start" x="670.5" y="-174.3" font-family="DejaVu Sans" font-size="14.00">…</text>
<polygon fill="#ffffff" stroke="transparent" points="374.5,-133 374.5,-160 693.5,-160 693.5,-133 374.5,-133"/>
<polygon fill="none" stroke="black" points="374.5,-133 374.5,-160 693.5,-160 693.5,-133 374.5,-133"/>
<text text-anchor="start" x="433" y="-144.3" font-family="DejaVu Sans" font-size="9.00">unsplit · serial: P[WS] ⇒ Q[OS] ⇒ P[WS] ⇒ …</text>
<polygon fill="#fffff3" stroke="transparent" points="716.5,-120 716.5,-271 1045.5,-271 1045.5,-120 716.5,-120"/>
<polygon fill="none" stroke="black" points="716.5,-120 716.5,-271 1045.5,-271 1045.5,-120 716.5,-120"/>
<polygon fill="#dae8fc" stroke="transparent" points="729.5,-227 729.5,-258 868.5,-258 868.5,-227 729.5,-227"/>
<polygon fill="none" stroke="#b8a000" points="729.5,-227 729.5,-258 868.5,-258 868.5,-227 729.5,-227"/>
<text text-anchor="start" x="757.5" y="-241" font-family="DejaVu Sans" font-weight="bold" font-size="10.00">Region A</text>
<text text-anchor="start" x="808.5" y="-241" font-family="DejaVu Sans" font-size="10.00"> — WS</text>
<polygon fill="#ffcccc" stroke="transparent" points="870.5,-227 870.5,-258 891.5,-258 891.5,-227 870.5,-227"/>
<polygon fill="none" stroke="#b8a000" points="870.5,-227 870.5,-258 891.5,-258 891.5,-227 870.5,-227"/>
<text text-anchor="start" x="878.5" y="-238.8" font-family="DejaVu Sans" font-size="14.00"> </text>
<polygon fill="#d5e8d4" stroke="transparent" points="893.5,-227 893.5,-258 1032.5,-258 1032.5,-227 893.5,-227"/>
<polygon fill="none" stroke="#b8a000" points="893.5,-227 893.5,-258 1032.5,-258 1032.5,-227 893.5,-227"/>
<text text-anchor="start" x="922.5" y="-241" font-family="DejaVu Sans" font-weight="bold" font-size="10.00">Region B</text>
<text text-anchor="start" x="973.5" y="-241" font-family="DejaVu Sans" font-size="10.00"> — OS</text>
<polygon fill="none" stroke="#b8a000" points="729.5,-194 729.5,-225 763.5,-225 763.5,-194 729.5,-194"/>
<text text-anchor="start" x="737.5" y="-205.8" font-family="DejaVu Sans" font-size="14.00">PE</text>
<polygon fill="none" stroke="#b8a000" points="765.5,-194 765.5,-225 799.5,-225 799.5,-194 765.5,-194"/>
<text text-anchor="start" x="773.5" y="-205.8" font-family="DejaVu Sans" font-size="14.00">PE</text>
<polygon fill="none" stroke="#b8a000" points="801.5,-194 801.5,-225 835.5,-225 835.5,-194 801.5,-194"/>
<text text-anchor="start" x="809.5" y="-205.8" font-family="DejaVu Sans" font-size="14.00">PE</text>
<polygon fill="none" stroke="#b8a000" points="837.5,-194 837.5,-225 868.5,-225 868.5,-194 837.5,-194"/>
<text text-anchor="start" x="845.5" y="-205.8" font-family="DejaVu Sans" font-size="14.00">…</text>
<polygon fill="#ffcccc" stroke="transparent" points="870.5,-194 870.5,-225 891.5,-225 891.5,-194 870.5,-194"/>
<polygon fill="none" stroke="#b8a000" points="870.5,-194 870.5,-225 891.5,-225 891.5,-194 870.5,-194"/>
<text text-anchor="start" x="878.5" y="-205.8" font-family="DejaVu Sans" font-size="14.00"> </text>
<polygon fill="none" stroke="#b8a000" points="893.5,-194 893.5,-225 927.5,-225 927.5,-194 893.5,-194"/>
<text text-anchor="start" x="901.5" y="-205.8" font-family="DejaVu Sans" font-size="14.00">PE</text>
<polygon fill="none" stroke="#b8a000" points="929.5,-194 929.5,-225 963.5,-225 963.5,-194 929.5,-194"/>
<text text-anchor="start" x="937.5" y="-205.8" font-family="DejaVu Sans" font-size="14.00">PE</text>
<polygon fill="none" stroke="#b8a000" points="965.5,-194 965.5,-225 999.5,-225 999.5,-194 965.5,-194"/>
<text text-anchor="start" x="973.5" y="-205.8" font-family="DejaVu Sans" font-size="14.00">PE</text>
<polygon fill="none" stroke="#b8a000" points="1001.5,-194 1001.5,-225 1032.5,-225 1032.5,-194 1001.5,-194"/>
<text text-anchor="start" x="1009.5" y="-205.8" font-family="DejaVu Sans" font-size="14.00">…</text>
<polygon fill="none" stroke="#b8a000" points="729.5,-161 729.5,-192 763.5,-192 763.5,-161 729.5,-161"/>
<text text-anchor="start" x="737.5" y="-172.8" font-family="DejaVu Sans" font-size="14.00">PE</text>
<polygon fill="none" stroke="#b8a000" points="765.5,-161 765.5,-192 799.5,-192 799.5,-161 765.5,-161"/>
<text text-anchor="start" x="773.5" y="-172.8" font-family="DejaVu Sans" font-size="14.00">PE</text>
<polygon fill="none" stroke="#b8a000" points="801.5,-161 801.5,-192 835.5,-192 835.5,-161 801.5,-161"/>
<text text-anchor="start" x="809.5" y="-172.8" font-family="DejaVu Sans" font-size="14.00">PE</text>
<polygon fill="none" stroke="#b8a000" points="837.5,-161 837.5,-192 868.5,-192 868.5,-161 837.5,-161"/>
<text text-anchor="start" x="845.5" y="-172.8" font-family="DejaVu Sans" font-size="14.00">…</text>
<polygon fill="#ffcccc" stroke="transparent" points="870.5,-161 870.5,-192 891.5,-192 891.5,-161 870.5,-161"/>
<polygon fill="none" stroke="#b8a000" points="870.5,-161 870.5,-192 891.5,-192 891.5,-161 870.5,-161"/>
<text text-anchor="start" x="878.5" y="-172.8" font-family="DejaVu Sans" font-size="14.00"> </text>
<polygon fill="none" stroke="#b8a000" points="893.5,-161 893.5,-192 927.5,-192 927.5,-161 893.5,-161"/>
<text text-anchor="start" x="901.5" y="-172.8" font-family="DejaVu Sans" font-size="14.00">PE</text>
<polygon fill="none" stroke="#b8a000" points="929.5,-161 929.5,-192 963.5,-192 963.5,-161 929.5,-161"/>
<text text-anchor="start" x="937.5" y="-172.8" font-family="DejaVu Sans" font-size="14.00">PE</text>
<polygon fill="none" stroke="#b8a000" points="965.5,-161 965.5,-192 999.5,-192 999.5,-161 965.5,-161"/>
<text text-anchor="start" x="973.5" y="-172.8" font-family="DejaVu Sans" font-size="14.00">PE</text>
<polygon fill="none" stroke="#b8a000" points="1001.5,-161 1001.5,-192 1032.5,-192 1032.5,-161 1001.5,-161"/>
<text text-anchor="start" x="1009.5" y="-172.8" font-family="DejaVu Sans" font-size="14.00">…</text>
<polygon fill="#fffff3" stroke="transparent" points="729.5,-133 729.5,-159 1032.5,-159 1032.5,-133 729.5,-133"/>
<polygon fill="none" stroke="#b8a000" points="729.5,-133 729.5,-159 1032.5,-159 1032.5,-133 729.5,-133"/>
<text text-anchor="start" x="773.5" y="-144.8" font-family="DejaVu Sans" font-weight="bold" font-size="9.00">split + concurrent · each mux free per tile</text>
<polygon fill="none" stroke="black" points="18.5,-37 18.5,-110 351.5,-110 351.5,-37 18.5,-37"/>
<text text-anchor="start" x="53.5" y="-88.8" font-family="DejaVu Sans" font-size="14.00"> &#160;&#160;&#160;&#160;&#160;&#160;&#160;&#160;&#160;</text>
<text text-anchor="start" x="99.5" y="-88.8" font-family="DejaVu Sans" font-weight="bold" font-size="11.00">A — Homogeneous&#45;dataflow fission</text>
<text text-anchor="start" x="29.5" y="-74.8" font-family="DejaVu Sans" font-size="14.00"> &#160;&#160;&#160;&#160;&#160;&#160;&#160;&#160;&#160;</text>
<text text-anchor="start" x="75.5" y="-74.8" font-family="DejaVu Sans" font-size="9.00">fission only · per&#45;region switching removed</text>
<text text-anchor="start" x="29.5" y="-64.8" font-family="DejaVu Sans" font-size="9.00">(captures homogeneous&#45;dataflow constraint)</text>
<text text-anchor="start" x="166.5" y="-51.8" font-family="DejaVu Sans" font-size="14.00"> &#160;&#160;&#160;&#160;&#160;&#160;&#160;</text>
<polygon fill="none" stroke="black" points="361.5,-37 361.5,-110 706.5,-110 706.5,-37 361.5,-37"/>
<text text-anchor="start" x="404" y="-88.8" font-family="DejaVu Sans" font-size="14.00"> &#160;&#160;&#160;&#160;&#160;&#160;&#160;&#160;&#160;</text>
<text text-anchor="start" x="450" y="-88.8" font-family="DejaVu Sans" font-weight="bold" font-size="11.00">B — Sequential dataflow switching</text>
<text text-anchor="start" x="372.5" y="-74.8" font-family="DejaVu Sans" font-size="14.00"> &#160;&#160;&#160;&#160;&#160;&#160;&#160;&#160;&#160;</text>
<text text-anchor="start" x="418.5" y="-74.8" font-family="DejaVu Sans" font-size="9.00">switching only · concurrency removed</text>
<text text-anchor="start" x="372.5" y="-64.8" font-family="DejaVu Sans" font-size="9.00">(captures single&#45;tenant constraint)</text>
<text text-anchor="start" x="515.5" y="-51.8" font-family="DejaVu Sans" font-size="14.00"> &#160;&#160;&#160;&#160;&#160;&#160;&#160;</text>
<polygon fill="#fffff3" stroke="transparent" points="716.5,-37 716.5,-110 1045.5,-110 1045.5,-37 716.5,-37"/>
<polygon fill="none" stroke="black" points="716.5,-37 716.5,-110 1045.5,-110 1045.5,-37 716.5,-37"/>
<text text-anchor="start" x="751" y="-88.8" font-family="DejaVu Sans" font-size="14.00"> &#160;&#160;&#160;&#160;&#160;&#160;&#160;&#160;&#160;</text>
<text text-anchor="start" x="797" y="-88.8" font-family="DejaVu Sans" font-weight="bold" font-size="11.00">C — Heterogeneous fission (novel)</text>
<text text-anchor="start" x="727.5" y="-74.8" font-family="DejaVu Sans" font-size="14.00"> &#160;&#160;&#160;&#160;&#160;&#160;&#160;&#160;&#160;</text>
<text text-anchor="start" x="773.5" y="-74.8" font-family="DejaVu Sans" font-size="9.00">= fission + per&#45;region dataflow selection</text>
<text text-anchor="start" x="727.5" y="-64.8" font-family="DejaVu Sans" font-size="9.00">both ideas composed</text>
<text text-anchor="start" x="862.5" y="-51.8" font-family="DejaVu Sans" font-size="14.00"> &#160;&#160;&#160;&#160;&#160;&#160;&#160;</text>
</g>
</g>
</svg>
