<?xml version="1.0" encoding="UTF-8" standalone="no"?>
<!DOCTYPE svg PUBLIC "-//W3C//DTD SVG 1.1//EN"
 "http://www.w3.org/Graphics/SVG/1.1/DTD/svg11.dtd">
<!-- Generated by graphviz version 2.43.0 (0)
 -->
<!-- Title: CFG_A Pages: 1 -->
<svg width="616pt" height="566pt"
 viewBox="0.00 0.00 616.00 566.00" xmlns="http://www.w3.org/2000/svg" xmlns:xlink="http://www.w3.org/1999/xlink">
<g id="graph0" class="graph" transform="scale(1 1) rotate(0) translate(18 548)">
<title>CFG_A</title>
<polygon fill="white" stroke="transparent" points="-18,18 -18,-548 598,-548 598,18 -18,18"/>
<text text-anchor="start" x="130.5" y="-35.6" font-family="DejaVu Sans" font-size="13.00">Config A — Homogeneous&#45;dataflow fission</text>
<text text-anchor="start" x="130.5" y="-21.6" font-family="DejaVu Sans" font-size="13.00">split array, concurrent regions, all pinned to WS</text>
<text text-anchor="start" x="130.5" y="-7.6" font-family="DejaVu Sans" font-size="13.00">(FORCE_DATAFLOW_EN=1 · PIN_DFLOW=WS)</text>
<g id="clust2" class="cluster">
<title>cluster_banksA</title>
<path fill="none" stroke="#cccccc" d="M20,-58C20,-58 258,-58 258,-58 264,-58 270,-64 270,-70 270,-70 270,-120 270,-120 270,-126 264,-132 258,-132 258,-132 20,-132 20,-132 14,-132 8,-126 8,-120 8,-120 8,-70 8,-70 8,-64 14,-58 20,-58"/>
<text text-anchor="middle" x="139" y="-65.6" font-family="DejaVu Sans" font-size="13.00"> </text>
</g>
<g id="clust3" class="cluster">
<title>cluster_banksB</title>
<path fill="none" stroke="#cccccc" d="M494,-58C494,-58 560,-58 560,-58 566,-58 572,-64 572,-70 572,-70 572,-120 572,-120 572,-126 566,-132 560,-132 560,-132 494,-132 494,-132 488,-132 482,-126 482,-120 482,-120 482,-70 482,-70 482,-64 488,-58 494,-58"/>
<text text-anchor="middle" x="527" y="-65.6" font-family="DejaVu Sans" font-size="13.00"> </text>
</g>
<!-- host -->
<g id="node1" class="node">
<title>host</title>
<path fill="#efefef" stroke="#666666" d="M345.5,-530C345.5,-530 254.5,-530 254.5,-530 248.5,-530 242.5,-524 242.5,-518 242.5,-518 242.5,-506 242.5,-506 242.5,-500 248.5,-494 254.5,-494 254.5,-494 345.5,-494 345.5,-494 351.5,-494 357.5,-500 357.5,-506 357.5,-506 357.5,-518 357.5,-518 357.5,-524 351.5,-530 345.5,-530"/>
<text text-anchor="middle" x="300" y="-509.2" font-family="DejaVu Sans" font-size="11.00">Host / Scheduler</text>
</g>
<!-- dec -->
<g id="node2" class="node">
<title>dec</title>
<path fill="#ede7f6" stroke="#7e57c2" d="M347,-447C347,-447 253,-447 253,-447 247,-447 241,-441 241,-435 241,-435 241,-423 241,-423 241,-417 247,-411 253,-411 253,-411 347,-411 347,-411 353,-411 359,-417 359,-423 359,-423 359,-435 359,-435 359,-441 353,-447 347,-447"/>
<text text-anchor="middle" x="300" y="-432.2" font-family="DejaVu Sans" font-size="11.00">Fission Decoder</text>
<text text-anchor="middle" x="300" y="-420.2" font-family="DejaVu Sans" font-size="11.00">(splits the array)</text>
</g>
<!-- host&#45;&gt;dec -->
<g id="edge1" class="edge">
<title>host&#45;&gt;dec</title>
<path fill="none" stroke="#444444" d="M300,-493.82C300,-483.19 300,-469.31 300,-457.2"/>
<polygon fill="#444444" stroke="#444444" points="303.5,-457.15 300,-447.15 296.5,-457.15 303.5,-457.15"/>
<text text-anchor="middle" x="311" y="-468" font-family="DejaVu Sans" font-size="10.00">split</text>
</g>
<!-- regA -->
<g id="node3" class="node">
<title>regA</title>
<path fill="#ffffff" stroke="#666666" d="M230.5,-364C230.5,-364 85.5,-364 85.5,-364 79.5,-364 73.5,-358 73.5,-352 73.5,-352 73.5,-266 73.5,-266 73.5,-260 79.5,-254 85.5,-254 85.5,-254 230.5,-254 230.5,-254 236.5,-254 242.5,-260 242.5,-266 242.5,-266 242.5,-352 242.5,-352 242.5,-358 236.5,-364 230.5,-364"/>
<polygon fill="#dae8fc" stroke="transparent" points="87,-333 87,-357 230,-357 230,-333 87,-333"/>
<polygon fill="none" stroke="#6c8ebf" points="87,-333 87,-357 230,-357 230,-333 87,-333"/>
<text text-anchor="start" x="103" y="-343.2" font-family="DejaVu Sans" font-weight="bold" font-size="11.00">Region A</text>
<text text-anchor="start" x="158" y="-343.2" font-family="DejaVu Sans" font-size="11.00"> · cols 0–7</text>
<polygon fill="none" stroke="#6c8ebf" points="87,-309 87,-333 230,-333 230,-309 87,-309"/>
<text text-anchor="start" x="93" y="-319.2" font-family="DejaVu Sans" font-size="11.00">Dataflow: </text>
<text text-anchor="start" x="149" y="-319.2" font-family="DejaVu Sans" font-weight="bold" font-size="11.00">WS</text>
<text text-anchor="start" x="170" y="-319.2" font-family="DejaVu Sans" font-size="11.00"> &#160;</text>
<text text-anchor="start" x="178" y="-319.2" font-family="DejaVu Sans" font-size="11.00" fill="#cc0000">(pinned)</text>
<polygon fill="none" stroke="#6c8ebf" points="87,-285 87,-309 133,-309 133,-285 87,-285"/>
<text text-anchor="start" x="103" y="-294.2" font-family="DejaVu Sans" font-size="11.00">PE</text>
<polygon fill="none" stroke="#6c8ebf" points="133,-285 133,-309 169,-309 169,-285 133,-285"/>
<text text-anchor="start" x="144" y="-294.2" font-family="DejaVu Sans" font-size="11.00">PE</text>
<polygon fill="none" stroke="#6c8ebf" points="169,-285 169,-309 200,-309 200,-285 169,-285"/>
<text text-anchor="start" x="177.5" y="-294.2" font-family="DejaVu Sans" font-size="11.00">PE</text>
<polygon fill="none" stroke="#6c8ebf" points="200,-285 200,-309 230,-309 230,-285 200,-285"/>
<text text-anchor="start" x="209" y="-294.2" font-family="DejaVu Sans" font-size="11.00">…</text>
<polygon fill="none" stroke="#6c8ebf" points="87,-261 87,-285 133,-285 133,-261 87,-261"/>
<text text-anchor="start" x="103" y="-270.2" font-family="DejaVu Sans" font-size="11.00">PE</text>
<polygon fill="none" stroke="#6c8ebf" points="133,-261 133,-285 169,-285 169,-261 133,-261"/>
<text text-anchor="start" x="144" y="-270.2" font-family="DejaVu Sans" font-size="11.00">PE</text>
<polygon fill="none" stroke="#6c8ebf" points="169,-261 169,-285 200,-285 200,-261 169,-261"/>
<text text-anchor="start" x="177.5" y="-270.2" font-family="DejaVu Sans" font-size="11.00">PE</text>
<polygon fill="none" stroke="#6c8ebf" points="200,-261 200,-285 230,-285 230,-261 200,-261"/>
<text text-anchor="start" x="209" y="-270.2" font-family="DejaVu Sans" font-size="11.00">…</text>
<polygon fill="none" stroke="#6c8ebf" points="85.5,-260 85.5,-358 230.5,-358 230.5,-260 85.5,-260"/>
</g>
<!-- dec&#45;&gt;regA -->
<g id="edge4" class="edge">
<title>dec&#45;&gt;regA</title>
<path fill="none" stroke="#444444" d="M279.35,-410.84C266.41,-400.09 248.87,-385.51 231.16,-370.79"/>
<polygon fill="#444444" stroke="#444444" points="232.95,-367.73 223.02,-364.03 228.47,-373.11 232.95,-367.73"/>
<text text-anchor="middle" x="275" y="-385" font-family="DejaVu Sans" font-size="10.00">region 0</text>
</g>
<!-- regB -->
<g id="node5" class="node">
<title>regB</title>
<path fill="#ffffff" stroke="#666666" d="M516.5,-364C516.5,-364 371.5,-364 371.5,-364 365.5,-364 359.5,-358 359.5,-352 359.5,-352 359.5,-266 359.5,-266 359.5,-260 365.5,-254 371.5,-254 371.5,-254 516.5,-254 516.5,-254 522.5,-254 528.5,-260 528.5,-266 528.5,-266 528.5,-352 528.5,-352 528.5,-358 522.5,-364 516.5,-364"/>
<polygon fill="#d5e8d4" stroke="transparent" points="373,-333 373,-357 516,-357 516,-333 373,-333"/>
<polygon fill="none" stroke="#82b366" points="373,-333 373,-357 516,-357 516,-333 373,-333"/>
<text text-anchor="start" x="385.5" y="-343.2" font-family="DejaVu Sans" font-weight="bold" font-size="11.00">Region B</text>
<text text-anchor="start" x="440.5" y="-343.2" font-family="DejaVu Sans" font-size="11.00"> · cols 8–15</text>
<polygon fill="none" stroke="#82b366" points="373,-309 373,-333 516,-333 516,-309 373,-309"/>
<text text-anchor="start" x="379" y="-319.2" font-family="DejaVu Sans" font-size="11.00">Dataflow: </text>
<text text-anchor="start" x="435" y="-319.2" font-family="DejaVu Sans" font-weight="bold" font-size="11.00">WS</text>
<text text-anchor="start" x="456" y="-319.2" font-family="DejaVu Sans" font-size="11.00"> &#160;</text>
<text text-anchor="start" x="464" y="-319.2" font-family="DejaVu Sans" font-size="11.00" fill="#cc0000">(pinned)</text>
<polygon fill="none" stroke="#82b366" points="373,-285 373,-309 419,-309 419,-285 373,-285"/>
<text text-anchor="start" x="389" y="-294.2" font-family="DejaVu Sans" font-size="11.00">PE</text>
<polygon fill="none" stroke="#82b366" points="419,-285 419,-309 455,-309 455,-285 419,-285"/>
<text text-anchor="start" x="430" y="-294.2" font-family="DejaVu Sans" font-size="11.00">PE</text>
<polygon fill="none" stroke="#82b366" points="455,-285 455,-309 486,-309 486,-285 455,-285"/>
<text text-anchor="start" x="463.5" y="-294.2" font-family="DejaVu Sans" font-size="11.00">PE</text>
<polygon fill="none" stroke="#82b366" points="486,-285 486,-309 516,-309 516,-285 486,-285"/>
<text text-anchor="start" x="495" y="-294.2" font-family="DejaVu Sans" font-size="11.00">…</text>
<polygon fill="none" stroke="#82b366" points="373,-261 373,-285 419,-285 419,-261 373,-261"/>
<text text-anchor="start" x="389" y="-270.2" font-family="DejaVu Sans" font-size="11.00">PE</text>
<polygon fill="none" stroke="#82b366" points="419,-261 419,-285 455,-285 455,-261 419,-261"/>
<text text-anchor="start" x="430" y="-270.2" font-family="DejaVu Sans" font-size="11.00">PE</text>
<polygon fill="none" stroke="#82b366" points="455,-261 455,-285 486,-285 486,-261 455,-261"/>
<text text-anchor="start" x="463.5" y="-270.2" font-family="DejaVu Sans" font-size="11.00">PE</text>
<polygon fill="none" stroke="#82b366" points="486,-261 486,-285 516,-285 516,-261 486,-261"/>
<text text-anchor="start" x="495" y="-270.2" font-family="DejaVu Sans" font-size="11.00">…</text>
<polygon fill="none" stroke="#82b366" points="371.5,-260 371.5,-358 516.5,-358 516.5,-260 371.5,-260"/>
</g>
<!-- dec&#45;&gt;regB -->
<g id="edge5" class="edge">
<title>dec&#45;&gt;regB</title>
<path fill="none" stroke="#444444" d="M320.94,-410.84C334.18,-399.99 352.17,-385.25 370.3,-370.39"/>
<polygon fill="#444444" stroke="#444444" points="372.55,-373.07 378.07,-364.03 368.11,-367.66 372.55,-373.07"/>
<text text-anchor="middle" x="374" y="-385" font-family="DejaVu Sans" font-size="10.00">region 1</text>
</g>
<!-- gate -->
<g id="node4" class="node">
<title>gate</title>
<polygon fill="#ffcccc" stroke="#cc0000" stroke-dasharray="5,2" points="323.5,-327 278.5,-327 278.5,-291 323.5,-291 323.5,-327"/>
<text text-anchor="middle" x="301" y="-306.8" font-family="DejaVu Sans" font-size="9.00">gate</text>
</g>
<!-- regA&#45;&gt;gate -->
<!-- safety -->
<g id="node6" class="node">
<title>safety</title>
<path fill="#fff4f0" stroke="#c0392b" d="M320,-207C320,-207 216,-207 216,-207 210,-207 204,-201 204,-195 204,-195 204,-183 204,-183 204,-177 210,-171 216,-171 216,-171 320,-171 320,-171 326,-171 332,-177 332,-183 332,-183 332,-195 332,-195 332,-201 326,-207 320,-207"/>
<text text-anchor="middle" x="268" y="-192.2" font-family="DejaVu Sans" font-size="11.00">OTP token + scrub</text>
<text text-anchor="middle" x="268" y="-180.2" font-family="DejaVu Sans" font-size="11.00">(per bank)</text>
</g>
<!-- regA&#45;&gt;safety -->
<g id="edge6" class="edge">
<title>regA&#45;&gt;safety</title>
<path fill="none" stroke="#444444" d="M215.5,-246.32C225.97,-235.09 236.31,-223.99 245.02,-214.65"/>
<polygon fill="#444444" stroke="#444444" points="212.75,-244.13 208.49,-253.84 217.87,-248.91 212.75,-244.13"/>
<polygon fill="#444444" stroke="#444444" points="247.65,-216.96 251.91,-207.26 242.53,-212.19 247.65,-216.96"/>
<text text-anchor="middle" x="247" y="-228" font-family="DejaVu Sans" font-size="10.00">token</text>
</g>
<!-- b0 -->
<g id="node7" class="node">
<title>b0</title>
<path fill="#ffe6cc" stroke="#d79b00" d="M249.5,-124C249.5,-124 200.5,-124 200.5,-124 194.5,-124 188.5,-118 188.5,-112 188.5,-112 188.5,-100 188.5,-100 188.5,-94 194.5,-88 200.5,-88 200.5,-88 249.5,-88 249.5,-88 255.5,-88 261.5,-94 261.5,-100 261.5,-100 261.5,-112 261.5,-112 261.5,-118 255.5,-124 249.5,-124"/>
<text text-anchor="middle" x="225" y="-103.5" font-family="DejaVu Sans" font-size="10.00">weights A</text>
</g>
<!-- regA&#45;&gt;b0 -->
<g id="edge8" class="edge">
<title>regA&#45;&gt;b0</title>
<path fill="none" stroke="#444444" d="M172.77,-244.19C178.8,-220.88 186.4,-194.48 195,-171 200.99,-154.64 209.57,-136.74 216.02,-124.04"/>
<polygon fill="#444444" stroke="#444444" points="169.35,-243.42 170.28,-253.97 176.13,-245.15 169.35,-243.42"/>
</g>
<!-- b1 -->
<g id="node8" class="node">
<title>b1</title>
<path fill="#ffe6cc" stroke="#d79b00" d="M158,-124C158,-124 118,-124 118,-124 112,-124 106,-118 106,-112 106,-112 106,-100 106,-100 106,-94 112,-88 118,-88 118,-88 158,-88 158,-88 164,-88 170,-94 170,-100 170,-100 170,-112 170,-112 170,-118 164,-124 158,-124"/>
<text text-anchor="middle" x="138" y="-103.5" font-family="DejaVu Sans" font-size="10.00">inputs A</text>
</g>
<!-- regA&#45;&gt;b1 -->
<g id="edge9" class="edge">
<title>regA&#45;&gt;b1</title>
<path fill="none" stroke="#444444" d="M151.61,-243.75C147.45,-201.96 142.33,-150.52 139.72,-124.24"/>
<polygon fill="#444444" stroke="#444444" points="148.14,-244.27 152.61,-253.87 155.11,-243.57 148.14,-244.27"/>
<text text-anchor="middle" x="153" y="-186.5" font-family="DejaVu Sans" font-size="10.00">in</text>
</g>
<!-- b2 -->
<g id="node9" class="node">
<title>b2</title>
<path fill="#ffe6cc" stroke="#d79b00" d="M75.5,-124C75.5,-124 28.5,-124 28.5,-124 22.5,-124 16.5,-118 16.5,-112 16.5,-112 16.5,-100 16.5,-100 16.5,-94 22.5,-88 28.5,-88 28.5,-88 75.5,-88 75.5,-88 81.5,-88 87.5,-94 87.5,-100 87.5,-100 87.5,-112 87.5,-112 87.5,-118 81.5,-124 75.5,-124"/>
<text text-anchor="middle" x="52" y="-103.5" font-family="DejaVu Sans" font-size="10.00">outputs A</text>
</g>
<!-- regA&#45;&gt;b2 -->
<g id="edge10" class="edge">
<title>regA&#45;&gt;b2</title>
<path fill="none" stroke="#444444" d="M129.45,-253.87C108.87,-214.84 81.99,-163.86 65.91,-133.37"/>
<polygon fill="#444444" stroke="#444444" points="68.85,-131.45 61.09,-124.24 62.66,-134.71 68.85,-131.45"/>
<text text-anchor="middle" x="112" y="-186.5" font-family="DejaVu Sans" font-size="10.00">out</text>
</g>
<!-- eppa -->
<g id="node11" class="node">
<title>eppa</title>
<path fill="#e8eaf6" stroke="#3949ab" d="M487.5,-207C487.5,-207 362.5,-207 362.5,-207 356.5,-207 350.5,-201 350.5,-195 350.5,-195 350.5,-183 350.5,-183 350.5,-177 356.5,-171 362.5,-171 362.5,-171 487.5,-171 487.5,-171 493.5,-171 499.5,-177 499.5,-183 499.5,-183 499.5,-195 499.5,-195 499.5,-201 493.5,-207 487.5,-207"/>
<text text-anchor="middle" x="425" y="-192.2" font-family="DejaVu Sans" font-size="11.00">EPPA arbiter</text>
<text text-anchor="middle" x="425" y="-180.2" font-family="DejaVu Sans" font-size="11.00">(bandwidth per phase)</text>
</g>
<!-- regA&#45;&gt;eppa -->
<g id="edge12" class="edge">
<title>regA&#45;&gt;eppa</title>
<path fill="none" stroke="#444444" d="M242.58,-266.17C251.47,-261.98 260.39,-257.85 269,-254 302.87,-238.83 341.45,-222.99 371.77,-210.86"/>
<polygon fill="#444444" stroke="#444444" points="373.32,-214.02 381.31,-207.06 370.73,-207.51 373.32,-214.02"/>
<text text-anchor="middle" x="347" y="-228" font-family="DejaVu Sans" font-size="10.00">phase</text>
</g>
<!-- gate&#45;&gt;regB -->
<!-- regB&#45;&gt;safety -->
<g id="edge7" class="edge">
<title>regB&#45;&gt;safety</title>
<path fill="none" stroke="#444444" d="M380.83,-247.45C370.9,-239.37 360.46,-231.61 350,-225 342.04,-219.97 333.22,-215.35 324.42,-211.24"/>
<polygon fill="#444444" stroke="#444444" points="378.74,-250.26 388.66,-253.98 383.22,-244.89 378.74,-250.26"/>
<polygon fill="#444444" stroke="#444444" points="325.83,-208.04 315.28,-207.13 322.97,-214.42 325.83,-208.04"/>
</g>
<!-- b3 -->
<g id="node10" class="node">
<title>b3</title>
<path fill="#ffe6cc" stroke="#d79b00" d="M551.5,-124C551.5,-124 502.5,-124 502.5,-124 496.5,-124 490.5,-118 490.5,-112 490.5,-112 490.5,-100 490.5,-100 490.5,-94 496.5,-88 502.5,-88 502.5,-88 551.5,-88 551.5,-88 557.5,-88 563.5,-94 563.5,-100 563.5,-100 563.5,-112 563.5,-112 563.5,-118 557.5,-124 551.5,-124"/>
<text text-anchor="middle" x="527" y="-103.5" font-family="DejaVu Sans" font-size="10.00">weights B</text>
</g>
<!-- regB&#45;&gt;b3 -->
<g id="edge11" class="edge">
<title>regB&#45;&gt;b3</title>
<path fill="none" stroke="#444444" d="M489.81,-245.05C497.12,-232.87 503.93,-219.88 509,-207 519.92,-179.26 524.27,-144.56 525.96,-124.19"/>
<polygon fill="#444444" stroke="#444444" points="486.7,-243.42 484.42,-253.77 492.66,-247.1 486.7,-243.42"/>
</g>
<!-- regB&#45;&gt;eppa -->
<g id="edge13" class="edge">
<title>regB&#45;&gt;eppa</title>
<path fill="none" stroke="#444444" d="M435.28,-253.84C433.24,-241.2 431.16,-228.27 429.41,-217.38"/>
<polygon fill="#444444" stroke="#444444" points="432.82,-216.58 427.78,-207.26 425.91,-217.69 432.82,-216.58"/>
</g>
<!-- eppa&#45;&gt;b0 -->
<g id="edge14" class="edge">
<title>eppa&#45;&gt;b0</title>
<path fill="none" stroke="#444444" d="M382.59,-170.82C349.92,-157.59 304.82,-139.33 271.23,-125.72"/>
<polygon fill="#444444" stroke="#444444" points="280.17,-127.82 270,-124.84 276.09,-133.51 280.17,-127.82"/>
<text text-anchor="middle" x="343.5" y="-145" font-family="DejaVu Sans" font-size="10.00">bw</text>
</g>
<!-- eppa&#45;&gt;b3 -->
<g id="edge15" class="edge">
<title>eppa&#45;&gt;b3</title>
<path fill="none" stroke="#444444" d="M446.63,-170.82C458.51,-161.39 473.61,-149.4 487.51,-138.36"/>
<polygon fill="#444444" stroke="#444444" points="489.87,-140.96 495.52,-132 485.51,-135.47 489.87,-140.96"/>
</g>
</g>
</svg>
